<?xml version="1.0" standalone="no"?>
<!DOCTYPE svg PUBLIC "-//W3C//DTD SVG 20010904//EN"
 "http://www.w3.org/TR/2001/REC-SVG-20010904/DTD/svg10.dtd">
<svg version="1.0" xmlns="http://www.w3.org/2000/svg"
 width="300.000000pt" height="300.000000pt" viewBox="0 0 300.000000 300.000000"
 preserveAspectRatio="xMidYMid meet">
<metadata>
Created by potrace 1.14, written by Peter Selinger 2001-2017
</metadata>
<g transform="translate(0.000000,300.000000) scale(0.100000,-0.100000)"
fill="#000000" stroke="none">
<path d="M1407 2874 c-1 -1 -29 -5 -62 -8 -457 -46 -879 -345 -1083 -767 -38
-79 -86 -209 -96 -261 -2 -13 -9 -45 -16 -73 -31 -134 -32 -418 -1 -533 4 -15
7 -34 6 -42 0 -8 2 -17 5 -20 7 -6 33 -99 34 -122 0 -9 4 -14 8 -12 4 3 8 -5
8 -18 0 -13 7 -34 16 -46 8 -12 12 -27 8 -34 -4 -7 -3 -8 4 -4 7 4 12 1 12 -8
0 -8 14 -38 30 -66 17 -28 30 -53 30 -56 0 -9 112 -165 147 -203 12 -14 19
-29 16 -34 -3 -6 -1 -7 4 -4 13 8 46 -27 36 -38 -5 -4 -3 -6 2 -2 6 3 28 -12
50 -34 21 -21 43 -39 48 -39 5 0 7 -7 4 -14 -4 -9 -1 -13 6 -10 7 2 22 -4 32
-14 29 -26 154 -107 198 -127 29 -13 35 -20 25 -27 -10 -7 -8 -8 5 -4 9 3 24
3 33 -1 13 -5 13 -7 2 -14 -9 -7 -8 -9 7 -7 34 2 56 -2 52 -9 -3 -5 9 -9 26
-10 19 -2 39 -12 49 -25 13 -16 16 -17 12 -5 -5 13 -2 16 10 11 9 -3 16 -9 16
-13 0 -4 10 -7 23 -8 40 -3 91 -15 111 -25 18 -10 76 -16 199 -20 31 -2 57 -7
57 -12 0 -4 7 -3 15 4 8 7 15 8 15 3 0 -5 7 -10 15 -10 8 0 15 3 15 7 0 9 43
6 59 -4 10 -6 12 -6 7 2 -5 8 5 12 33 12 23 0 43 0 46 1 2 0 29 6 60 13 30 8
52 10 50 5 -3 -4 7 -1 23 6 15 8 37 16 48 18 10 1 25 7 33 11 9 6 12 5 8 -2
-4 -5 11 -1 33 9 22 11 46 17 52 13 7 -4 8 -3 4 4 -7 11 7 16 41 15 7 -1 10 3
7 8 -3 5 1 9 8 9 7 0 30 9 51 20 21 11 43 17 49 14 6 -4 8 -3 5 3 -4 6 10 19
31 29 20 10 40 23 43 28 4 5 12 5 18 2 6 -4 10 -4 9 1 -2 4 0 8 4 8 4 0 13 8
20 18 8 10 20 17 28 15 8 -2 14 2 13 9 -2 7 7 18 19 24 12 6 37 25 56 43 19
17 39 30 44 28 5 -1 7 1 4 6 -7 11 30 42 40 34 4 -4 4 -2 1 4 -8 14 17 37 27
26 4 -4 6 -2 4 4 -1 6 9 25 23 41 14 16 38 47 52 68 15 22 27 35 28 30 0 -6 4
0 10 13 5 14 13 20 20 16 8 -4 9 -3 5 4 -10 16 12 54 26 46 6 -4 9 -3 6 2 -8
12 10 56 20 50 4 -2 8 3 9 12 2 31 77 191 87 185 5 -3 7 -2 4 3 -4 5 3 43 14
84 11 41 21 84 23 95 2 11 4 20 5 20 8 0 24 179 24 275 0 99 -15 245 -29 290
-3 10 -8 28 -10 39 -3 12 -7 29 -9 39 -11 48 -52 156 -87 230 -130 269 -369
508 -639 639 -147 71 -285 111 -440 129 -51 6 -248 12 -253 8z"/>
<path d="M835 261 c-3 -5 -2 -12 3 -15 5 -3 9 1 9 9 0 17 -3 19 -12 6z"/>
<path d="M996 178 c3 -4 11 -5 19 -1 21 7 19 12 -4 10 -11 0 -18 -5 -15 -9z"/>
<path d="M1753 113 c0 -9 4 -10 14 -2 7 6 13 12 13 14 0 1 -6 2 -13 2 -8 0
-14 -6 -14 -14z"/>
<path d="M1573 105 c0 -8 4 -12 9 -9 5 3 6 10 3 15 -9 13 -12 11 -12 -6z"/>
<path d="M1365 100 c-3 -6 1 -7 9 -4 18 7 21 14 7 14 -6 0 -13 -4 -16 -10z"/>
</g>
</svg>
